<?xml version="1.0" encoding="UTF-8"?>
<!DOCTYPE svg PUBLIC "-//W3C//DTD SVG 1.1//EN" "http://www.w3.org/Graphics/SVG/1.1/DTD/svg11.dtd">
<svg xmlns="http://www.w3.org/2000/svg" xml:space="preserve" width="640px" height="259px" version="1.1" style="shape-rendering:geometricPrecision; text-rendering:geometricPrecision; image-rendering:optimizeQuality; fill-rule:evenodd; clip-rule:evenodd"
viewBox="0 0 643 260"
 xmlns:xlink="http://www.w3.org/1999/xlink">
 <defs>
  <style type="text/css">
   <![CDATA[
    .fil1 {fill:#0F613A;fill-rule:nonzero}
    .fil2 {fill:#4C4B4A;fill-rule:nonzero}
    .fil0 {fill:#EE7B24;fill-rule:nonzero}
   ]]>
  </style>
 </defs>
 <g id="Layer_x0020_1">
  <metadata id="CorelCorpID_0Corel-Layer"/>
  <path class="fil0" d="M499 196l-93 0 0 -21 93 0 0 21zm12 -172c-16,-16 -35,-24 -59,-24 -23,0 -43,8 -59,24 -17,17 -25,36 -25,60 0,23 8,43 25,59 4,4 8,8 13,11l0 12 25 0 0 -1 0 -25c-7,-3 -14,-8 -21,-14 -12,-12 -17,-26 -17,-43 0,-16 5,-30 17,-41 12,-12 26,-18 42,-18 17,0 31,6 42,18 12,11 18,25 18,41 0,17 -6,31 -18,43 -6,6 -13,11 -21,14l0 25 0 1 26 0 0 -12c4,-3 8,-7 12,-11 17,-16 25,-36 25,-59 0,-24 -8,-43 -25,-60zm-24 232l-69 0 0 -21 69 0 0 21zm12 -30l-93 0 0 -21 93 0 0 21z"/>
  <path class="fil1" d="M145 197l0 14 5 0c2,0 4,-1 6,-2 1,-1 2,-3 2,-5 0,-2 -1,-4 -2,-5 -2,-1 -4,-2 -6,-2l-5 0zm394 -2l0 16 4 0c3,0 5,0 7,-2 1,-1 2,-3 2,-6 0,-2 -1,-4 -2,-6 -2,-1 -4,-2 -7,-2l-4 0zm-29 61l0 -82 37 0c10,0 18,3 24,7 6,5 9,12 9,21 0,6 -2,10 -5,14 -2,4 -6,6 -11,7l22 33 -33 0 -14 -27 0 27 -29 0zm-181 0l-26 0 -24 -82 30 0 9 52 9 -52 21 0 9 52 10 -52 29 0 -24 82 -25 0 -9 -36 -9 36zm-94 -24c4,0 7,-1 10,-4 3,-3 4,-7 4,-12 0,-5 -1,-8 -4,-11 -2,-3 -6,-5 -10,-5 -4,0 -8,2 -10,5 -3,3 -4,6 -4,11 0,3 0,5 1,7 0,2 1,3 3,5 2,3 6,4 10,4zm44 -16c0,6 -1,12 -3,17 -2,6 -5,10 -9,14 -4,4 -9,7 -15,10 -5,2 -11,3 -17,3 -6,0 -12,-1 -18,-3 -5,-2 -10,-6 -14,-10 -4,-4 -7,-8 -9,-14 -3,-5 -4,-11 -4,-17 0,-6 1,-12 4,-17 2,-5 5,-10 9,-14 4,-4 9,-7 14,-9 6,-2 12,-4 18,-4 6,0 12,2 17,4 6,2 11,5 15,9 4,4 7,9 9,14 2,5 3,11 3,17zm-163 40l0 -82 35 0c12,0 21,3 27,7 5,5 8,13 8,23 0,10 -3,17 -8,21 -5,5 -13,7 -24,7l-9 0 0 24 -29 0z"/>
  <path class="fil2" d="M92 53l28 0 0 100 -28 0 0 -100zm525 0l0 62 -46 -62 -26 0 0 100 26 0c0,0 1,-42 1,-62l45 62 26 0 0 -100 -26 0zm-545 68c-4,6 -11,9 -19,9 -14,0 -26,-12 -26,-28 0,-15 12,-28 26,-28 8,0 15,4 20,10l13 -23c-9,-6 -20,-11 -33,-11 -29,0 -53,24 -53,53 0,29 24,52 53,52 13,0 24,-4 33,-11l-14 -23zm239 11l10 0c7,0 11,0 14,-2 2,-2 4,-4 4,-8 0,-4 -1,-7 -4,-9 -2,-2 -7,-2 -14,-2l-10 0 0 21zm0 -39l6 0c7,0 11,-1 14,-2 2,-2 4,-4 4,-8 0,-4 -2,-7 -4,-8 -2,-2 -7,-2 -14,-2l-6 0 0 20zm-25 60l0 -100 28 0c11,0 19,0 23,1 5,1 9,2 12,4 4,2 6,4 8,8 2,3 3,7 3,12 0,6 -1,10 -4,13 -3,4 -8,6 -14,8 7,1 13,3 17,8 4,4 6,10 6,17 0,6 -1,10 -4,14 -2,4 -5,8 -9,10 -4,2 -8,3 -13,4 -5,1 -13,1 -25,1l-28 0zm-70 0l0 -100 61 0 0 22 -34 0 0 17 32 0 0 22 -32 0 0 16 34 0 0 23 -61 0zm-58 -53l5 0c6,0 10,-1 13,-3 3,-2 4,-5 4,-9 0,-5 -1,-9 -4,-11 -2,-2 -7,-3 -12,-3l-6 0 0 26zm-25 53l0 -100 28 0c11,0 19,0 23,1 5,1 9,3 12,6 3,2 6,6 8,10 2,4 3,9 3,14 0,8 -2,14 -6,19 -4,5 -9,8 -16,10l27 40 -31 0 -23 -39 0 39 -25 0z"/>
 </g>
</svg>
